<?xml version="1.0" encoding="UTF-8"?><svg id="Camada_2" xmlns="http://www.w3.org/2000/svg" xmlns:xlink="http://www.w3.org/1999/xlink" viewBox="0 0 605.77 325.19"><defs><style>.cls-1{fill:#84121a;}.cls-2{fill:#727176;}.cls-3{fill:#871015;}.cls-4{fill:url(#Gradiente_sem_nome_19);}.cls-5{fill:#88868b;}</style><linearGradient id="Gradiente_sem_nome_19" x1="179.24" y1="28.33" x2="425.86" y2="28.33" gradientUnits="userSpaceOnUse"><stop offset="0" stop-color="#5f0102"/><stop offset=".5" stop-color="#881017"/><stop offset="1" stop-color="#5f0102"/></linearGradient></defs><g id="Camada_1-2"><path class="cls-5" d="M235.25,141.21v33.33c-42.42-10.49-58.44-31.77-48.04-50.4.08.05.17.11.26.16,7.18,4.55,16.14,8.51,26.69,11.77,6.48,2,13.53,3.72,21.09,5.14Z"/><path class="cls-5" d="M303.01,181.05c-21.07.33-39.33-1.1-54.79-3.8-.02,0-.05,0-.07-.01l25.2-25.2,5.97-5.97.07-.07c.3.01.6.02.9.03.16.01.33.02.5.02,7.19.28,14.62.36,22.24.26,2.1.02,4.19.04,6.26.04,32.26,0,60.72-3.53,82.58-10.28,10.55-3.25,19.51-7.22,26.69-11.77.09-.05.18-.11.26-.16,14.79,26.49-23.81,58.33-115.79,56.92Z"/><path class="cls-5" d="M235.25,100.59v34.8c-57.05-9.85-78.28-33.53-63.71-53.67,0-.01.01-.02.02-.04.45.28.91.56,1.38.84,3.26,1.92,6.99,3.73,11.14,5.44,5.66,2.32,12.13,4.45,19.35,6.35,1.01.27,2.02.53,3.06.78,3.33.83,6.8,1.61,10.39,2.34h0c2.7.55,5.46,1.07,8.3,1.56h.01c2.91.51,5.89.98,8.93,1.43.38.05.75.11,1.13.16Z"/><path class="cls-5" d="M303.01,140.01c-6.06.08-11.91.05-17.56-.08l4.59-4.59,12.97-12.97,17.54-17.54c.89-.03,1.78-.06,2.66-.1,20.71-.77,40.34-2.73,57.63-5.75h0c2.84-.49,5.6-1.01,8.3-1.55h0c3.59-.73,7.05-1.51,10.39-2.34,1.04-.26,2.05-.52,3.06-.78,7.71-2.03,14.55-4.32,20.48-6.82,3.71-1.58,7.05-3.23,10.02-4.97.47-.27.93-.56,1.38-.84,0,.01.01.02.02.04,19.36,26.76-24.48,59.74-131.48,58.3Z"/><path class="cls-3" d="M46.87,246.96l33.19,76.29h-18.97l-6.57-16.16h-29.63l-6.36,16.16H0l32.97-76.29h13.9ZM30.17,292.86h18.64l-9.37-23.71-9.27,23.71Z"/><path class="cls-3" d="M117.77,246.96c13.79,0,28.23,4.63,28.23,23.17,0,11.21-6.14,18.97-16.49,20.9l19.4,32.22h-20.15l-15.95-30.5h-8.3v30.5h-16.81v-76.29h30.06ZM114.97,278.53c7.76,0,13.58-1.29,13.58-8.51,0-6.25-4.63-8.84-12.61-8.84h-11.42v17.35h10.45Z"/><path class="cls-3" d="M210.01,246.96v15.52h-35.02v14.22h33.08v15.52h-33.08v15.52h36.96v15.52h-53.77v-76.29h51.83Z"/><path class="cls-3" d="M248.26,246.96l32.43,53.02h.22v-53.02h16.81v76.29h-21.98l-33.3-54.31h-.22v54.31h-16.81v-76.29h22.84Z"/><path class="cls-3" d="M352.23,246.96l33.19,76.29h-18.97l-6.57-16.16h-29.63l-6.36,16.16h-18.53l32.97-76.29h13.9ZM335.53,292.86h18.64l-9.37-23.71-9.27,23.71Z"/><path class="cls-5" d="M456.65,257.08l-6.79,5.07c-3.56-5.71-12.61-10.02-19.61-10.02-18.53,0-31.36,14.55-31.36,32.97s12.93,32.97,31.36,32.97c9.59,0,16.81-3.77,21.87-11.42l6.36,4.53c-5.6,8.51-16.49,14.01-28.23,14.01-22.74,0-39.76-17.35-39.76-40.09s17.03-40.08,39.76-40.08c10.67,0,20.26,4.31,26.4,12.07Z"/><path class="cls-5" d="M517.52,246.96v7.11h-38.25v25.97h35.56v7.11h-35.56v36.1h-7.76v-76.29h46.01Z"/><path class="cls-5" d="M605.77,285.1c0,22.84-17.03,40.09-39.76,40.09s-39.76-17.35-39.76-40.09,16.92-40.08,39.76-40.08,39.76,17.35,39.76,40.08ZM566.01,318.07c18.86,0,31.36-14.65,31.36-32.97s-12.82-32.97-31.46-32.97-31.25,14.33-31.25,32.97,12.93,32.97,31.36,32.97Z"/><path class="cls-1" d="M454.79,48.55h0c-.24-6.95-3.38-16.36-15.86-24.59-1.11-.73-2.29-1.45-3.55-2.16-3.54-2-7.65-3.88-12.32-5.65-3.2-1.21-6.65-2.37-10.36-3.46-2.1-.63-4.29-1.24-6.55-1.81-1.33-.35-2.69-.68-4.07-1.01-11.21-2.67-23.93-4.83-37.66-6.45-2.48-.3-5-.57-7.55-.82-16.89-1.7-35.11-2.58-53.85-2.58-7.53,0-14.97.14-22.27.42-1.98.07-3.95.16-5.91.26-12.11.6-23.78,1.58-34.79,2.91-1.99.24-3.97.5-5.91.76-10.89,1.49-21.04,3.33-30.18,5.51-7.4,1.76-14.04,3.72-19.86,5.87-5.12,1.89-9.62,3.92-13.45,6.07-1.26.71-2.44,1.43-3.55,2.15-10.78,7.11-14.59,15.11-15.58,21.63-.16,1.02-.24,2.01-.27,2.95h0c-.01.3-.01.59-.01.88s0,.58.01.87h0c.03.95.12,1.95.27,2.97.99,6.52,4.8,14.52,15.58,21.63,1.1.73,2.29,1.44,3.55,2.15.6.34,1.21.67,1.84,1,.47.25.96.5,1.47.75,3.04,1.52,6.43,2.96,10.14,4.32,5.82,2.15,12.46,4.11,19.86,5.87,7.07,1.68,14.74,3.17,22.88,4.43,2.01.32,4.04.61,6.11.9.4.06.79.11,1.19.17,1.75.24,3.53.47,5.33.68.19.03.39.05.58.07.37.04.75.09,1.13.13v80.39l77.14-77.13h.1c2.91-.07,5.79-.18,8.65-.3,13.8-.57,27.09-1.64,39.51-3.17,2.21-.27,4.37-.55,6.52-.85,2.07-.29,4.1-.58,6.11-.9,8.14-1.27,15.81-2.75,22.88-4.43,7.88-1.88,14.9-3.98,20.99-6.29,3.28-1.24,6.28-2.54,9.02-3.9.5-.24.98-.5,1.47-.75.63-.33,1.24-.67,1.84-1,1.27-.71,2.44-1.44,3.55-2.16,12.48-8.23,15.62-17.64,15.86-24.58h0c.01-.3.01-.59.01-.88s0-.58-.01-.87ZM423.06,42.17c-2.18,2.52-5.66,4.96-10.42,7.24h-.06c-3.73,1.52-8.76,3.21-15.34,4.91-3.03.78-6.4,1.57-10.13,2.33h-.01c-.81.17-1.61.33-2.46.5-6.11,1.18-12.65,2.23-19.54,3.12-3.09.4-6.25.77-9.47,1.11-.04,0-.08,0-.12.01-16.15,1.7-33.79,2.61-51.74,2.64h-.05l-27.78,27.78v-28.46c-.38-.02-.75-.04-1.13-.06-11.77-.62-23.12-1.63-33.67-3-.38-.05-.75-.1-1.13-.15-2-.26-3.98-.54-5.91-.83-4.43-.66-8.68-1.38-12.75-2.18-.84-.16-1.66-.33-2.47-.5h0c-3.73-.76-7.1-1.55-10.13-2.33-6.58-1.7-11.61-3.39-15.35-4.91h-.95c-3.49-1.67-6.28-3.43-8.39-5.23-6.45-5.53-6.45-11.53,0-17.07,7.64-6.55,24.32-12.44,50.04-16.06,1.92-.27,3.89-.53,5.91-.78,10.29-1.25,21.89-2.16,34.79-2.64,1.94-.07,3.92-.13,5.91-.19,6.91-.18,14.18-.24,21.81-.17h.46c17.81-.16,33.68.41,47.62,1.55,2.63.21,5.18.44,7.67.7,17.14,1.73,31.02,4.37,41.63,7.57,2.24.67,4.32,1.37,6.27,2.09,8.17,3.01,13.79,6.41,16.86,9.95,3.72,4.28,3.72,8.76,0,13.04Z"/><path class="cls-4" d="M423.06,29.13c-3.07-3.54-8.69-6.94-16.86-9.95-1.95-.73-4.03-1.42-6.27-2.09-10.62-3.2-24.5-5.83-41.63-7.57-2.49-.26-5.04-.49-7.67-.7-13.94-1.13-29.81-1.7-47.62-1.55h-.46c-7.62-.07-14.89,0-21.81.17-2,.05-3.98.12-5.91.19-12.9.48-24.5,1.39-34.79,2.64-2.02.24-4,.5-5.91.78-25.72,3.63-42.4,9.51-50.04,16.06-6.45,5.54-6.45,11.54,0,17.07,2.11,1.81,4.9,3.57,8.39,5.23h.95c5.83-2.37,14.81-5.17,27.95-7.74,4.06-.79,8.32-1.52,12.75-2.18,1.94-.29,3.92-.57,5.91-.83,10.87-1.44,22.6-2.49,34.79-3.14,1.96-.1,3.93-.2,5.91-.28,7.31-.3,14.76-.46,22.27-.46s14.25.14,21.23.41c2.69.11,5.35.24,8,.38,15.95.87,31.1,2.47,44.52,4.68,2.42.4,4.79.82,7.1,1.27.27.04.53.1.79.15,13.14,2.56,22.12,5.37,27.94,7.74h.06c4.76-2.28,8.23-4.72,10.42-7.24,3.72-4.28,3.72-8.76,0-13.04Z"/><path class="cls-2" d="M418.54,124.3c-7.94,7.23-18.95,13.32-32.62,17.95-21.78,7.38-50.55,11.06-82.91,10.58-1.91.03-3.81.04-5.69.04-5.66,0-11.18-.13-16.57-.38-2.5-.12-4.97-.27-7.42-.44l5.97-5.97.07-.07c.3.01.6.02.9.03.16.01.33.02.5.02,7.19.28,14.62.36,22.24.26,2.1.02,4.19.04,6.26.04,32.26,0,60.72-3.53,82.58-10.28,10.55-3.25,19.51-7.22,26.69-11.77Z"/><path class="cls-2" d="M187.47,124.3c7.94,7.23,18.95,13.32,32.63,17.95,4.74,1.61,9.8,3.04,15.15,4.28v-5.32c-7.56-1.43-14.61-3.15-21.09-5.14-10.55-3.26-19.51-7.22-26.69-11.77Z"/><path class="cls-2" d="M434.46,81.68c-.45.28-.91.56-1.38.84-2.97,1.75-6.31,3.4-10.02,4.97-5.92,2.5-12.77,4.79-20.48,6.82-1.01.27-2.02.53-3.06.78-3.33.83-6.8,1.61-10.39,2.34h0c-2.69.55-5.46,1.07-8.3,1.55h0c-18.03,3.15-38.6,5.14-60.29,5.85l-6.67,6.67c29.83-.69,57.78-4.22,79.65-10.11,13.43-3.62,24.41-8.11,32.64-13.35,3.18-2.02,5.94-4.15,8.32-6.33,0-.01-.01-.02-.02-.04Z"/><path class="cls-2" d="M225.19,98.99h-.01c-2.84-.5-5.6-1.01-8.3-1.56h0c-3.59-.73-7.05-1.51-10.39-2.34-1.04-.26-2.05-.52-3.06-.78-7.23-1.9-13.69-4.03-19.35-6.35-4.15-1.71-7.88-3.52-11.14-5.44-.47-.27-.93-.56-1.38-.84,0,.01-.01.02-.02.04,2.38,2.18,5.14,4.31,8.32,6.33,8.23,5.23,19.21,9.73,32.64,13.35,7.01,1.89,14.63,3.53,22.76,4.92v-5.73c-.38-.05-.75-.11-1.13-.16-3.04-.44-6.02-.92-8.93-1.43Z"/><path class="cls-2" d="M323.2,104.74v6.46l-37.74,28.72,4.57-4.57,12.97-12.97,17.54-17.54c.89-.03,1.78-.06,2.66-.1Z"/><path class="cls-2" d="M280.77,146.02v6.46h-.01s-32.54,24.78-32.54,24.78c-.02,0-.05,0-.07-.01l25.2-25.2,5.97-5.97c.33,0,.64-.02.96-.04.17,0,.33,0,.5-.01Z"/></g></svg>