<?xml version="1.0" encoding="UTF-8"?><svg id="Camada_2" xmlns="http://www.w3.org/2000/svg" viewBox="0 0 585.02 106.96"><defs><style>.cls-1{fill:#fff;}</style></defs><g id="Camada_1-2"><path class="cls-1" d="M68.23,5.44c-36.97,21.85-30.14,59.81-25.05,84.04C23.69,57.99,30.33,16.47,68.23,5.44Z"/><path class="cls-1" d="M82.35,32.51C24.26,40.56-6.21,6.42,31.58,7.08c-30.9,3.19,7.44,22.53,50.77,25.43h0Z"/><path class="cls-1" d="M88.31,61.02C18.5,80.08-21.65,35.21,12.22,34.59c-27.44,3.59,23.22,33.56,76.09,26.43h0Z"/><path class="cls-1" d="M68.67,5.82s-6.83,48.77-.67,88.31c-10.77-18.24-11.18-67.08.67-88.31Z"/><path class="cls-1" d="M111.58,78.96c-9.02,18.34-29.5,29.43-50.05,27.85-21.01-1.37-40.33-15.99-46.93-35.82C1.83,34.47,31.35-3.26,70.39.22c17.38,1.55,33.6,12.27,41.2,27.77-3.18-4.57-6.96-8.68-11.34-12.11C78.29-1.52,45.37,2.07,28.6,24.49c-6.39,8.24-9.78,18.62-9.83,28.99-.16,18.31,11.17,36.04,28.01,43.75,22.84,11.08,50.84,2.59,64.8-18.27h0Z"/><path class="cls-1" d="M185.36,30.17c0,2.98-2.41,5.39-5.39,5.39h-8.6c-9.65,0-17.15,5.82-17.15,17.93s7.49,17.92,17.15,17.92h8.6c2.98,0,5.39,2.41,5.39,5.39v10.33c0,.46-.37.83-.83.83h-16.31c-18.52,0-31.91-15.56-31.91-34.47s13.39-34.47,31.91-34.47h16.31c.46,0,.83.37.83.83v10.31Z"/><path class="cls-1" d="M205.97,87.96h-10.92c-.46,0-.83-.37-.83-.83V24.4c0-2.97,2.41-5.38,5.38-5.38h10.92c.46,0,.83.37.83.83v62.72c0,2.97-2.41,5.38-5.38,5.38Z"/><path class="cls-1" d="M254.78,89.14c-19.93,0-35.65-16.35-35.65-35.65s15.72-35.66,35.65-35.66,35.66,16.36,35.66,35.66-15.72,35.65-35.66,35.65ZM254.78,35.36c-10.27,0-18.12,8.28-18.12,18.13s7.85,18.11,18.12,18.11,18.12-8.26,18.12-18.11-7.85-18.13-18.12-18.13Z"/><path class="cls-1" d="M334.83,29.72c0,2.9-2.35,5.25-5.25,5.25h-12.07c-2.17,0-3.94.79-3.94,2.85,0,5.81,25.7,13.3,25.7,29.45,0,8.85-2.27,20.67-24.33,20.67h-17.58c-.46,0-.83-.37-.83-.83v-9.81c0-2.94,2.38-5.32,5.32-5.32h12.51c3.94,0,6.39-1.18,6.39-3.73,0-7.3-24.71-13.2-24.71-29.75,0-14.37,10.14-19.49,20.88-19.49h17.08c.46,0,.83.37.83.83v9.87Z"/><path class="cls-1" d="M347.99,87.96c-.46,0-.83-.37-.83-.83v-43.78c0-16.34,9.75-25.51,24.51-25.51,12.8,0,23.34,9.47,23.34,23.25s-8.77,24.21-23.53,24.21h-3.51c-.46,0-.83-.37-.83-.83v-10.23c0-2.57,1.87-4.75,4.41-5.14,3.98-.61,6.33-2.52,6.33-8.01,0-3.84-2.66-7.29-7.19-7.29-3.94,0-6.4,2.76-6.4,6.89v42.01c0,2.91-2.36,5.26-5.26,5.26h-11.03Z"/><path class="cls-1" d="M472.68,29.57c-.11,0-.2-.04-.28-.12-.08-.08-.12-.17-.12-.28v-2.11h-5.23c-.12,0-.22-.04-.29-.12-.07-.08-.11-.17-.11-.28v-1.12c0-.07.01-.15.04-.24.03-.09.07-.18.14-.26l4.87-6.75c.14-.19.35-.28.61-.28h1.8c.11,0,.2.04.28.12.08.08.12.17.12.28v6.7h1.47c.13,0,.23.04.31.11.07.07.11.17.11.29v1.15c0,.11-.04.2-.12.28s-.17.12-.28.12h-1.48v2.11c0,.11-.04.2-.12.28-.08.08-.17.12-.28.12h-1.44ZM468.95,25.19h3.38v-4.77l-3.38,4.77Z"/><path class="cls-1" d="M482.05,29.74c-.77,0-1.44-.09-2-.28-.56-.19-1.03-.43-1.39-.73-.37-.3-.65-.63-.83-.99-.19-.36-.29-.71-.3-1.06,0-.1.04-.18.11-.24.07-.06.16-.09.26-.09h1.48c.11,0,.2.02.28.07.08.04.14.13.2.26.1.3.26.53.49.71.23.18.49.3.78.37.3.07.61.11.94.11.66,0,1.19-.16,1.58-.47.39-.31.59-.76.59-1.34s-.18-1-.54-1.26c-.36-.26-.87-.39-1.52-.39h-1.7c-.12,0-.22-.04-.3-.11-.08-.07-.12-.17-.12-.29v-.69c0-.11.02-.21.07-.29.05-.08.1-.15.16-.21l2.95-2.89h-4.72c-.12,0-.22-.04-.29-.12-.07-.08-.11-.17-.11-.28v-1.09c0-.12.04-.22.11-.3.07-.08.17-.12.29-.12h7.08c.12,0,.22.04.3.12.08.08.12.18.12.3v.99c0,.1-.02.19-.07.26-.04.08-.09.14-.15.2l-2.85,2.94.2.02c.67.06,1.27.21,1.79.45.52.25.93.61,1.22,1.08.29.47.44,1.07.44,1.78s-.2,1.39-.59,1.92c-.39.53-.93.94-1.61,1.23-.68.29-1.46.43-2.34.43Z"/><path class="cls-1" d="M489.95,22.12c-.6,0-1.07-.14-1.4-.42-.33-.28-.52-.69-.55-1.22,0-.08-.01-.21-.01-.41s0-.32.01-.39c.03-.54.22-.95.58-1.22.35-.28.81-.41,1.37-.41s1,.14,1.36.41c.35.28.55.68.58,1.22,0,.07.01.2.01.39s0,.33-.01.41c-.03.53-.21.94-.54,1.22-.33.28-.79.42-1.39.42ZM489.95,21.11c.21,0,.36-.06.47-.17.11-.11.17-.29.18-.54,0-.08.01-.19.01-.33s0-.25-.01-.32c0-.23-.07-.4-.18-.52-.11-.12-.27-.18-.47-.18s-.38.06-.48.18c-.1.12-.16.3-.18.52,0,.07-.01.17-.01.32s0,.25.01.33c.02.25.08.43.18.54.1.11.26.17.48.17Z"/><path class="cls-1" d="M502.1,29.74c-1.02,0-1.89-.18-2.6-.54-.71-.36-1.25-.87-1.63-1.53-.37-.67-.58-1.47-.63-2.4-.01-.45-.02-.93-.02-1.45s0-1.01.02-1.48c.04-.92.26-1.72.64-2.39.38-.67.92-1.19,1.63-1.54.71-.36,1.57-.54,2.58-.54.75,0,1.42.1,2.01.3.59.2,1.1.47,1.52.82.42.35.74.75.97,1.21.23.46.35.96.36,1.5.01.1-.02.18-.09.25-.07.07-.16.1-.26.1h-1.57c-.12,0-.22-.03-.3-.09-.08-.06-.13-.16-.17-.31-.18-.73-.48-1.22-.91-1.48s-.96-.4-1.6-.4c-.74,0-1.33.21-1.77.62-.44.41-.68,1.09-.71,2.04-.03.9-.03,1.83,0,2.77.03.95.27,1.63.71,2.04.44.41,1.03.62,1.77.62.64,0,1.17-.13,1.61-.4.43-.27.73-.76.9-1.48.03-.15.09-.26.17-.31.08-.05.18-.08.3-.08h1.57c.1,0,.18.03.26.1.07.07.1.15.09.25-.01.54-.13,1.04-.36,1.5s-.56.87-.97,1.21c-.42.35-.92.62-1.52.82-.59.2-1.26.3-2.01.3Z"/><path class="cls-1" d="M512.53,29.74c-.88,0-1.62-.15-2.22-.46-.6-.31-1.06-.74-1.37-1.3-.31-.56-.49-1.22-.54-1.96-.01-.2-.02-.44-.02-.73s0-.53.02-.73c.04-.76.23-1.42.55-1.97.32-.56.79-.99,1.39-1.3.6-.31,1.33-.46,2.19-.46s1.59.15,2.19.46c.6.31,1.06.74,1.39,1.3.32.56.51,1.21.55,1.97.01.2.02.44.02.73s0,.53-.02.73c-.04.75-.22,1.4-.54,1.96-.31.56-.77,1-1.37,1.3-.6.31-1.34.46-2.22.46ZM512.53,28.11c.58,0,1.03-.18,1.35-.55.32-.37.49-.91.53-1.63.01-.16.02-.38.02-.64s0-.48-.02-.64c-.03-.71-.21-1.26-.53-1.63-.32-.37-.77-.55-1.35-.55s-1.03.18-1.35.55c-.32.37-.5.91-.53,1.63-.01.16-.02.38-.02.64s0,.48.02.64c.03.72.21,1.26.53,1.63.32.37.77.55,1.35.55Z"/><path class="cls-1" d="M518.89,29.57c-.11,0-.2-.04-.28-.12-.08-.08-.12-.17-.12-.28v-7.79c0-.11.04-.2.12-.28.08-.08.17-.12.28-.12h1.35c.11,0,.2.04.28.12.08.08.12.17.12.28v.68c.29-.35.65-.65,1.1-.88.45-.24,1-.35,1.66-.35s1.25.15,1.75.45c.49.3.88.73,1.15,1.28.27.55.4,1.21.4,1.98v4.64c0,.11-.04.2-.12.28-.08.08-.17.12-.28.12h-1.45c-.11,0-.2-.04-.28-.12-.08-.08-.12-.17-.12-.28v-4.54c0-.64-.16-1.14-.47-1.5-.31-.36-.77-.54-1.36-.54s-1.03.18-1.37.54c-.34.36-.51.86-.51,1.5v4.54c0,.11-.04.2-.12.28-.08.08-.17.12-.28.12h-1.45Z"/><path class="cls-1" d="M532.67,33.2c-.8,0-1.46-.1-1.98-.31-.52-.21-.92-.46-1.22-.76-.3-.3-.51-.59-.64-.88-.13-.29-.2-.52-.21-.68-.01-.11.02-.21.11-.29.08-.08.18-.12.29-.12h1.44c.11,0,.2.02.26.07s.12.14.16.27c.07.14.15.3.26.46.11.16.28.31.5.42.23.12.54.17.93.17.42,0,.77-.06,1.06-.18.29-.12.5-.32.65-.61.15-.29.22-.68.22-1.19v-1.12c-.26.32-.6.58-1.01.78-.41.2-.92.3-1.53.3s-1.09-.1-1.53-.29c-.43-.19-.79-.46-1.08-.81-.29-.35-.5-.76-.65-1.23-.15-.47-.23-1-.26-1.57-.01-.3-.01-.59,0-.89.02-.55.11-1.06.26-1.53.15-.47.37-.89.65-1.25.29-.36.65-.64,1.08-.83.43-.2.94-.3,1.53-.3.63,0,1.15.12,1.58.35.43.24.78.53,1.06.88v-.66c0-.12.04-.22.12-.3.08-.08.17-.12.28-.12h1.34c.11,0,.2.04.28.12.08.08.12.18.12.3l.02,7.95c0,.79-.15,1.47-.45,2.05-.3.57-.75,1.01-1.34,1.33-.6.31-1.37.47-2.3.47ZM532.59,27.78c.45,0,.81-.1,1.09-.3.27-.2.48-.46.61-.78.13-.32.21-.64.23-.97.01-.14.02-.32.02-.54s0-.4-.02-.53c-.02-.34-.1-.67-.23-.98-.13-.31-.34-.57-.61-.78-.28-.2-.64-.31-1.09-.31s-.81.1-1.09.31c-.27.2-.47.47-.59.8s-.18.69-.21,1.09c-.02.26-.02.53,0,.81.02.39.09.75.21,1.08.12.34.31.6.59.8.27.2.64.3,1.09.3Z"/><path class="cls-1" d="M539.35,29.57c-.11,0-.2-.04-.28-.12-.08-.08-.12-.17-.12-.28v-7.77c0-.12.04-.22.12-.3.08-.08.17-.12.28-.12h1.34c.11,0,.21.04.29.12.08.08.12.18.12.3v.68c.25-.35.58-.62.98-.81.4-.19.87-.28,1.39-.28h.68c.12,0,.22.04.29.12.07.08.11.17.11.28v1.19c0,.11-.04.2-.11.28-.07.08-.17.12-.29.12h-1.29c-.53,0-.94.15-1.23.44-.29.29-.44.7-.44,1.23v4.54c0,.11-.04.2-.12.28-.08.08-.18.12-.3.12h-1.44Z"/><path class="cls-1" d="M549.42,29.74c-1.22,0-2.19-.35-2.9-1.06-.72-.7-1.1-1.7-1.16-3-.01-.11-.02-.25-.02-.42s0-.31.02-.4c.04-.84.23-1.55.57-2.15.34-.6.8-1.06,1.39-1.39.59-.32,1.29-.49,2.1-.49.89,0,1.64.18,2.24.55.6.37,1.06.88,1.37,1.53.31.65.46,1.41.46,2.27v.35c0,.11-.04.2-.12.28-.08.08-.18.12-.3.12h-5.48v.13c.01.39.09.74.22,1.06.14.32.34.59.61.78.27.2.59.3.97.3.31,0,.57-.05.78-.14.21-.09.38-.2.51-.32.13-.12.23-.22.28-.3.1-.13.18-.21.24-.24.06-.03.15-.04.27-.04h1.42c.11,0,.2.03.27.1.07.07.1.15.09.25-.01.18-.1.39-.27.64-.17.25-.42.5-.73.74-.32.24-.72.44-1.2.6-.48.16-1.03.24-1.64.24ZM547.6,24.54h3.65v-.05c0-.43-.07-.81-.21-1.13-.14-.32-.35-.58-.63-.76-.28-.18-.6-.27-.99-.27s-.72.09-.99.27c-.28.18-.48.43-.62.76-.14.32-.21.7-.21,1.13v.05Z"/><path class="cls-1" d="M558.49,29.74c-.66,0-1.22-.08-1.69-.23-.47-.15-.85-.35-1.15-.58-.3-.23-.52-.46-.66-.69-.14-.23-.22-.42-.23-.58-.01-.12.02-.22.11-.29.08-.07.17-.11.27-.11h1.3s.08,0,.12.02c.03.01.08.04.13.1.14.12.29.25.45.38.16.13.35.24.57.34.22.09.49.14.82.14.43,0,.79-.09,1.08-.26.29-.17.44-.42.44-.73,0-.23-.06-.42-.19-.56-.13-.14-.36-.27-.7-.39-.34-.12-.82-.24-1.45-.37-.62-.14-1.13-.32-1.53-.54-.41-.22-.71-.49-.91-.82s-.3-.71-.3-1.15.13-.84.39-1.23c.26-.39.64-.71,1.16-.97.51-.25,1.15-.38,1.91-.38.59,0,1.11.07,1.55.22.44.15.81.33,1.1.55.29.22.51.44.67.67.15.23.24.42.25.59.01.12-.02.22-.1.29-.08.07-.16.11-.26.11h-1.22c-.06,0-.1-.01-.15-.03-.04-.02-.09-.05-.13-.08-.12-.11-.25-.23-.4-.35-.14-.13-.32-.23-.52-.32-.2-.09-.47-.13-.8-.13-.42,0-.74.09-.96.27-.22.18-.33.41-.33.68,0,.19.05.35.16.49.1.14.32.27.64.39.32.12.8.25,1.45.38.74.13,1.32.33,1.76.59.43.26.74.56.92.89.18.34.27.71.27,1.11,0,.49-.15.94-.44,1.34-.29.4-.72.71-1.29.93-.57.23-1.27.34-2.1.34Z"/><path class="cls-1" d="M567.27,29.74c-.66,0-1.22-.08-1.69-.23-.47-.15-.85-.35-1.15-.58-.3-.23-.52-.46-.66-.69-.14-.23-.22-.42-.23-.58-.01-.12.02-.22.11-.29.08-.07.17-.11.27-.11h1.3s.08,0,.12.02c.03.01.08.04.13.1.14.12.29.25.45.38.16.13.35.24.57.34.22.09.5.14.82.14.43,0,.79-.09,1.08-.26.29-.17.44-.42.44-.73,0-.23-.06-.42-.19-.56-.13-.14-.36-.27-.7-.39-.34-.12-.82-.24-1.45-.37-.62-.14-1.13-.32-1.53-.54-.41-.22-.71-.49-.91-.82s-.3-.71-.3-1.15.13-.84.39-1.23c.26-.39.64-.71,1.15-.97.51-.25,1.15-.38,1.91-.38.59,0,1.11.07,1.55.22.44.15.81.33,1.1.55.29.22.51.44.67.67.15.23.24.42.25.59.01.12-.02.22-.1.29-.08.07-.17.11-.26.11h-1.22c-.06,0-.1-.01-.15-.03-.04-.02-.09-.05-.13-.08-.12-.11-.25-.23-.4-.35-.14-.13-.32-.23-.52-.32-.2-.09-.47-.13-.8-.13-.42,0-.74.09-.96.27-.22.18-.33.41-.33.68,0,.19.05.35.16.49.1.14.32.27.63.39.32.12.8.25,1.45.38.74.13,1.32.33,1.76.59.43.26.74.56.92.89.18.34.27.71.27,1.11,0,.49-.15.94-.44,1.34-.29.4-.72.71-1.29.93-.57.23-1.27.34-2.1.34Z"/><path class="cls-1" d="M576.59,29.74c-.88,0-1.62-.15-2.22-.46-.6-.31-1.06-.74-1.37-1.3-.31-.56-.49-1.22-.54-1.96-.01-.2-.02-.44-.02-.73s0-.53.02-.73c.04-.76.23-1.42.55-1.97.32-.56.79-.99,1.39-1.3.6-.31,1.33-.46,2.19-.46s1.59.15,2.19.46c.6.31,1.06.74,1.39,1.3.32.56.51,1.21.55,1.97.01.2.02.44.02.73s0,.53-.02.73c-.04.75-.22,1.4-.54,1.96-.31.56-.77,1-1.37,1.3-.6.31-1.34.46-2.22.46ZM576.59,28.11c.58,0,1.03-.18,1.35-.55.32-.37.49-.91.53-1.63.01-.16.02-.38.02-.64s0-.48-.02-.64c-.03-.71-.21-1.26-.53-1.63-.32-.37-.77-.55-1.35-.55s-1.03.18-1.35.55c-.32.37-.49.91-.53,1.63-.01.16-.02.38-.02.64s0,.48.02.64c.03.72.21,1.26.53,1.63.32.37.77.55,1.35.55Z"/><path class="cls-1" d="M467.85,49.37c-.11,0-.2-.04-.28-.12-.08-.08-.12-.17-.12-.28v-10.76c0-.11.04-.2.12-.28.08-.08.17-.12.28-.12h1.55c.12,0,.22.04.29.12.07.08.11.17.11.28v10.76c0,.11-.04.2-.11.28-.07.08-.17.12-.29.12h-1.55Z"/><path class="cls-1" d="M472.58,49.37c-.11,0-.2-.04-.28-.12-.08-.08-.12-.17-.12-.28v-7.79c0-.11.04-.2.12-.28s.17-.12.28-.12h1.35c.11,0,.2.04.28.12.08.08.12.17.12.28v.68c.29-.35.65-.65,1.1-.88.45-.24,1-.35,1.66-.35s1.25.15,1.75.45c.5.3.88.73,1.15,1.28.27.55.4,1.21.4,1.98v4.64c0,.11-.04.2-.12.28-.08.08-.17.12-.28.12h-1.45c-.11,0-.2-.04-.28-.12-.08-.08-.12-.17-.12-.28v-4.54c0-.64-.16-1.14-.47-1.5-.31-.36-.77-.54-1.36-.54s-1.03.18-1.37.54c-.34.36-.51.86-.51,1.5v4.54c0,.11-.04.2-.12.28-.08.08-.17.12-.28.12h-1.45Z"/><path class="cls-1" d="M486.26,49.37c-.66,0-1.22-.12-1.67-.35-.45-.23-.79-.57-1.01-1.03-.22-.46-.33-1.03-.33-1.71v-3.75h-1.3c-.11,0-.2-.04-.28-.12-.08-.08-.12-.18-.12-.3v-.94c0-.11.04-.2.12-.28s.17-.12.28-.12h1.3v-2.74c0-.11.04-.2.11-.28.07-.08.17-.12.29-.12h1.34c.11,0,.2.04.28.12.08.08.12.17.12.28v2.74h2.06c.11,0,.2.04.28.12.08.08.12.17.12.28v.94c0,.12-.04.22-.12.3-.08.08-.17.12-.28.12h-2.06v3.58c0,.45.08.8.24,1.06.16.25.44.38.83.38h1.14c.11,0,.2.04.28.12.08.08.12.17.12.28v1.02c0,.11-.04.2-.12.28-.08.08-.17.12-.28.12h-1.34Z"/><path class="cls-1" d="M493.15,49.54c-1.22,0-2.19-.35-2.9-1.06-.72-.7-1.1-1.7-1.15-3-.01-.11-.02-.25-.02-.42s0-.31.02-.4c.04-.84.23-1.55.57-2.15.34-.6.8-1.06,1.39-1.39.59-.32,1.29-.49,2.1-.49.89,0,1.64.18,2.24.55.6.37,1.06.88,1.37,1.53.31.65.46,1.41.46,2.27v.35c0,.11-.04.2-.12.28-.08.08-.18.12-.3.12h-5.48v.13c.01.39.09.74.22,1.06.14.32.34.59.61.78.27.2.59.3.97.3.31,0,.57-.05.78-.14.21-.09.38-.2.51-.32.13-.12.23-.22.28-.3.1-.13.18-.21.24-.24.06-.03.15-.04.27-.04h1.42c.11,0,.2.03.27.1.07.07.1.15.09.25-.01.18-.1.39-.27.64-.17.25-.42.5-.73.74-.32.24-.72.44-1.2.6s-1.03.24-1.64.24ZM491.34,44.34h3.65v-.05c0-.43-.07-.81-.21-1.13-.14-.32-.35-.58-.63-.76-.28-.18-.61-.27-.99-.27s-.72.09-.99.27c-.28.18-.48.43-.62.76-.14.32-.21.7-.21,1.13v.05Z"/><path class="cls-1" d="M499.37,49.37c-.11,0-.2-.04-.28-.12-.08-.08-.12-.17-.12-.28v-7.77c0-.12.04-.22.12-.3s.17-.12.28-.12h1.34c.11,0,.21.04.29.12.08.08.12.18.12.3v.68c.25-.35.58-.62.98-.81.4-.19.87-.28,1.39-.28h.68c.12,0,.22.04.29.12.07.08.11.17.11.28v1.19c0,.11-.04.2-.11.28-.07.08-.17.12-.29.12h-1.29c-.53,0-.94.15-1.23.44-.29.29-.44.7-.44,1.23v4.54c0,.11-.04.2-.12.28-.08.08-.18.12-.3.12h-1.44Z"/><path class="cls-1" d="M506.25,49.37c-.11,0-.2-.04-.28-.12-.08-.08-.12-.17-.12-.28v-7.79c0-.11.04-.2.12-.28.08-.08.17-.12.28-.12h1.35c.11,0,.2.04.28.12.08.08.12.17.12.28v.68c.29-.35.65-.65,1.1-.88.45-.24,1-.35,1.66-.35s1.25.15,1.75.45c.5.3.88.73,1.15,1.28.27.55.4,1.21.4,1.98v4.64c0,.11-.04.2-.12.28-.08.08-.17.12-.28.12h-1.45c-.11,0-.2-.04-.28-.12-.08-.08-.12-.17-.12-.28v-4.54c0-.64-.16-1.14-.47-1.5-.31-.36-.77-.54-1.36-.54s-1.03.18-1.37.54c-.34.36-.51.86-.51,1.5v4.54c0,.11-.04.2-.12.28-.08.08-.17.12-.28.12h-1.45Z"/><path class="cls-1" d="M518.64,49.54c-.57,0-1.09-.11-1.55-.34-.46-.23-.83-.53-1.1-.91-.27-.38-.4-.81-.4-1.28,0-.77.31-1.38.94-1.84.63-.46,1.45-.76,2.46-.92l2.26-.33v-.35c0-.46-.12-.82-.35-1.07-.23-.25-.63-.38-1.19-.38-.4,0-.72.08-.97.24-.25.16-.43.37-.55.64-.09.14-.21.21-.38.21h-1.3c-.12,0-.21-.03-.27-.1-.06-.07-.09-.15-.09-.26.01-.18.09-.39.22-.64.14-.25.35-.5.63-.73.28-.24.65-.44,1.1-.6.45-.16,1-.25,1.63-.25.69,0,1.28.09,1.76.26.48.17.86.4,1.15.68.29.29.49.62.63,1.01.13.39.2.79.2,1.22v5.18c0,.11-.04.2-.12.28-.08.08-.17.12-.28.12h-1.34c-.12,0-.22-.04-.29-.12-.07-.08-.11-.17-.11-.28v-.64c-.14.2-.34.39-.58.58-.24.19-.54.34-.88.45-.35.12-.76.17-1.23.17ZM519.2,47.97c.38,0,.73-.08,1.05-.25s.56-.42.74-.77c.18-.35.27-.78.27-1.31v-.35l-1.65.26c-.65.1-1.13.26-1.45.48-.32.22-.48.49-.48.81,0,.24.07.45.22.62.15.17.34.3.57.38.23.08.47.12.73.12Z"/><path class="cls-1" d="M529.29,49.54c-.79,0-1.49-.15-2.09-.45-.6-.3-1.07-.73-1.4-1.3-.34-.57-.52-1.25-.55-2.05-.01-.16-.02-.38-.02-.65s0-.49.02-.67c.03-.8.22-1.49.55-2.05.34-.57.8-1,1.4-1.3.6-.3,1.3-.45,2.09-.45.7,0,1.3.1,1.8.29.49.19.9.44,1.22.74.32.3.56.62.72.94.16.32.24.62.26.88.01.12-.02.22-.11.29-.08.07-.18.11-.29.11h-1.45c-.11,0-.2-.03-.26-.08-.06-.05-.12-.14-.17-.25-.16-.44-.38-.75-.65-.93-.27-.18-.61-.27-1.03-.27-.55,0-.99.17-1.31.52-.32.35-.5.89-.52,1.64-.02.42-.02.8,0,1.15.02.76.2,1.31.52,1.65.32.34.76.51,1.31.51.43,0,.78-.09,1.04-.27s.48-.49.64-.93c.05-.11.11-.19.17-.25.06-.05.15-.08.26-.08h1.45c.11,0,.21.04.29.11.08.07.12.17.11.29-.01.2-.06.42-.16.67-.09.25-.24.5-.45.76-.2.26-.46.49-.77.71-.31.21-.68.39-1.11.52-.43.13-.94.2-1.51.2Z"/><path class="cls-1" d="M535.32,39.37c-.11,0-.2-.04-.28-.12-.08-.08-.12-.17-.12-.28v-1.19c0-.11.04-.2.12-.28.08-.08.17-.12.28-.12h1.5c.12,0,.22.04.3.12.08.08.12.17.12.28v1.19c0,.11-.04.2-.12.28-.08.08-.18.12-.3.12h-1.5ZM535.39,49.37c-.11,0-.2-.04-.28-.12-.08-.08-.12-.17-.12-.28v-7.79c0-.11.04-.2.12-.28.08-.08.17-.12.28-.12h1.37c.12,0,.22.04.29.12.07.08.11.17.11.28v7.79c0,.11-.04.2-.11.28-.07.08-.17.12-.29.12h-1.37Z"/><path class="cls-1" d="M543.14,49.54c-.88,0-1.62-.15-2.22-.46-.6-.31-1.06-.74-1.37-1.3-.31-.56-.49-1.22-.54-1.96-.01-.2-.02-.44-.02-.73s0-.53.02-.73c.04-.76.23-1.42.55-1.97.32-.56.79-.99,1.39-1.3.6-.31,1.33-.46,2.19-.46s1.59.15,2.19.46c.6.31,1.06.74,1.39,1.3.32.56.51,1.21.55,1.97.01.2.02.44.02.73s0,.53-.02.73c-.04.75-.22,1.4-.54,1.96-.31.56-.77,1-1.37,1.3-.6.31-1.34.46-2.22.46ZM543.14,47.9c.58,0,1.03-.18,1.35-.55.32-.37.49-.91.53-1.63.01-.16.02-.38.02-.64s0-.48-.02-.64c-.03-.71-.21-1.26-.53-1.63-.32-.37-.77-.55-1.35-.55s-1.03.18-1.35.55c-.32.37-.49.91-.53,1.63-.01.16-.02.38-.02.64s0,.48.02.64c.03.72.21,1.26.53,1.63.32.37.77.55,1.35.55Z"/><path class="cls-1" d="M549.51,49.37c-.11,0-.2-.04-.28-.12-.08-.08-.12-.17-.12-.28v-7.79c0-.11.04-.2.12-.28.08-.08.17-.12.28-.12h1.35c.11,0,.2.04.28.12.08.08.12.17.12.28v.68c.29-.35.65-.65,1.1-.88.45-.24,1-.35,1.66-.35s1.25.15,1.75.45c.5.3.88.73,1.15,1.28.27.55.4,1.21.4,1.98v4.64c0,.11-.04.2-.12.28-.08.08-.17.12-.28.12h-1.45c-.11,0-.2-.04-.28-.12-.08-.08-.12-.17-.12-.28v-4.54c0-.64-.16-1.14-.47-1.5-.31-.36-.77-.54-1.36-.54s-1.03.18-1.37.54c-.34.36-.51.86-.51,1.5v4.54c0,.11-.04.2-.12.28-.08.08-.17.12-.28.12h-1.45Z"/><path class="cls-1" d="M561.9,49.54c-.57,0-1.09-.11-1.55-.34-.46-.23-.83-.53-1.1-.91-.27-.38-.4-.81-.4-1.28,0-.77.31-1.38.94-1.84.63-.46,1.45-.76,2.46-.92l2.26-.33v-.35c0-.46-.12-.82-.35-1.07-.23-.25-.63-.38-1.19-.38-.4,0-.72.08-.97.24-.25.16-.43.37-.55.64-.09.14-.21.21-.38.21h-1.3c-.12,0-.21-.03-.27-.1-.06-.07-.09-.15-.09-.26.01-.18.08-.39.22-.64.14-.25.35-.5.63-.73.28-.24.65-.44,1.1-.6.45-.16,1-.25,1.63-.25.69,0,1.28.09,1.76.26.48.17.86.4,1.15.68.29.29.49.62.63,1.01.13.39.2.79.2,1.22v5.18c0,.11-.04.2-.12.28-.08.08-.17.12-.28.12h-1.34c-.12,0-.22-.04-.29-.12-.07-.08-.11-.17-.11-.28v-.64c-.14.2-.34.39-.58.58-.24.19-.54.34-.88.45-.35.12-.76.17-1.23.17ZM562.46,47.97c.38,0,.73-.08,1.05-.25s.56-.42.74-.77c.18-.35.27-.78.27-1.31v-.35l-1.65.26c-.65.1-1.13.26-1.45.48-.32.22-.48.49-.48.81,0,.24.07.45.22.62.15.17.34.3.57.38.23.08.47.12.73.12Z"/><path class="cls-1" d="M569.24,49.37c-.11,0-.2-.04-.28-.12-.08-.08-.12-.17-.12-.28v-10.92c0-.11.04-.2.12-.28.08-.08.17-.12.28-.12h1.37c.11,0,.2.04.28.12.08.08.12.17.12.28v10.92c0,.11-.04.2-.12.28-.08.08-.17.12-.28.12h-1.37Z"/><path class="cls-1" d="M470.44,69.34c-.57,0-1.08-.1-1.51-.29-.43-.19-.79-.46-1.08-.82-.29-.35-.51-.77-.66-1.25-.15-.48-.24-1-.26-1.58-.01-.2-.02-.38-.02-.54s0-.34.02-.54c.02-.55.11-1.06.26-1.53.15-.47.37-.89.66-1.25.29-.36.65-.64,1.09-.83.43-.2.94-.3,1.51-.3s1.1.1,1.51.31c.41.2.76.46,1.03.78v-3.66c0-.11.04-.2.11-.28.07-.08.17-.12.29-.12h1.4c.11,0,.2.04.28.12.08.08.12.17.12.28v10.92c0,.11-.04.2-.12.28-.08.08-.17.12-.28.12h-1.3c-.12,0-.22-.04-.29-.12-.07-.08-.11-.17-.11-.28v-.61c-.28.34-.62.62-1.05.84-.42.22-.95.33-1.59.33ZM471.05,67.57c.46,0,.83-.1,1.11-.31.27-.21.48-.48.61-.8.13-.32.2-.66.21-1,.01-.2.02-.41.02-.64s0-.44-.02-.64c-.01-.33-.09-.65-.23-.95-.14-.3-.35-.55-.63-.75-.28-.2-.63-.3-1.07-.3-.46,0-.83.1-1.1.31-.27.2-.46.47-.59.8-.12.33-.19.69-.21,1.09-.01.33-.01.66,0,.99.02.4.09.76.21,1.09.12.33.32.6.59.8.27.2.64.31,1.1.31Z"/><path class="cls-1" d="M481.06,69.34c-1.22,0-2.19-.35-2.9-1.06-.72-.7-1.1-1.7-1.15-3-.01-.11-.02-.25-.02-.42s0-.31.02-.4c.04-.84.23-1.55.57-2.15.34-.6.8-1.06,1.39-1.39.59-.32,1.29-.49,2.1-.49.89,0,1.64.18,2.24.55.6.37,1.06.88,1.37,1.53.31.65.46,1.41.46,2.27v.35c0,.11-.04.2-.12.28-.08.08-.18.12-.3.12h-5.48v.13c.01.39.09.74.22,1.06.14.32.34.59.61.78.27.2.59.3.97.3.31,0,.57-.05.78-.14.21-.09.38-.2.51-.32.13-.12.23-.22.28-.3.1-.13.18-.21.24-.24.06-.03.15-.04.27-.04h1.42c.11,0,.2.03.27.1.07.07.1.15.09.25-.01.18-.1.39-.27.64-.17.25-.42.5-.73.74-.32.24-.72.44-1.2.6s-1.03.24-1.64.24ZM479.25,64.14h3.65v-.05c0-.43-.07-.81-.21-1.13-.14-.32-.35-.58-.63-.76-.28-.18-.61-.27-.99-.27s-.72.09-.99.27c-.28.18-.48.43-.62.76-.14.32-.21.7-.21,1.13v.05Z"/><path class="cls-1" d="M495.3,69.34c-.98,0-1.82-.16-2.52-.49-.7-.32-1.25-.82-1.65-1.5-.4-.68-.61-1.52-.64-2.53-.01-.47-.02-.94-.02-1.4s0-.93.02-1.42c.03-1,.25-1.84.66-2.51.41-.67.97-1.18,1.67-1.52.71-.34,1.54-.51,2.48-.51s1.78.17,2.49.51c.71.34,1.28.85,1.68,1.52.41.67.63,1.51.66,2.51.02.48.03.96.03,1.42s-.01.93-.03,1.4c-.03,1.01-.25,1.86-.64,2.53s-.95,1.18-1.66,1.5c-.71.32-1.55.49-2.53.49ZM495.3,67.44c.71,0,1.3-.21,1.75-.64.45-.42.69-1.11.73-2.07.02-.48.03-.93.03-1.34s-.01-.86-.03-1.33c-.02-.64-.14-1.16-.35-1.56-.21-.4-.5-.69-.87-.87s-.78-.27-1.25-.27-.87.09-1.24.27c-.36.18-.65.47-.87.87-.21.4-.33.92-.35,1.56-.01.47-.02.92-.02,1.33s0,.86.02,1.34c.03.96.27,1.65.73,2.07.45.42,1.03.64,1.73.64Z"/><path class="cls-1" d="M505.31,69.34c-.57,0-1.08-.1-1.51-.29s-.79-.46-1.08-.82c-.29-.35-.51-.77-.66-1.25-.15-.48-.24-1-.26-1.58-.01-.2-.02-.38-.02-.54s0-.34.02-.54c.02-.55.11-1.06.26-1.53.15-.47.37-.89.66-1.25.29-.36.65-.64,1.09-.83.43-.2.94-.3,1.51-.3s1.1.1,1.51.31c.41.2.76.46,1.03.78v-3.66c0-.11.04-.2.11-.28.07-.08.17-.12.29-.12h1.4c.11,0,.2.04.28.12.08.08.12.17.12.28v10.92c0,.11-.04.2-.12.28-.08.08-.17.12-.28.12h-1.3c-.12,0-.22-.04-.29-.12-.07-.08-.11-.17-.11-.28v-.61c-.28.34-.62.62-1.05.84-.42.22-.95.33-1.59.33ZM505.92,67.57c.46,0,.83-.1,1.11-.31.27-.21.48-.48.61-.8.13-.32.2-.66.21-1,.01-.2.02-.41.02-.64s0-.44-.02-.64c-.01-.33-.09-.65-.23-.95-.14-.3-.35-.55-.63-.75-.28-.2-.63-.3-1.07-.3-.46,0-.83.1-1.1.31-.27.2-.46.47-.59.8-.12.33-.19.69-.21,1.09-.01.33-.01.66,0,.99.02.4.09.76.21,1.09.12.33.32.6.59.8.27.2.64.31,1.1.31Z"/><path class="cls-1" d="M516.04,69.34c-.88,0-1.62-.15-2.22-.46-.6-.31-1.06-.74-1.37-1.3-.31-.56-.49-1.22-.54-1.96-.01-.2-.02-.44-.02-.73s0-.53.02-.73c.04-.76.23-1.42.55-1.97.32-.56.79-.99,1.39-1.3.6-.31,1.33-.46,2.19-.46s1.59.15,2.19.46c.6.31,1.06.74,1.39,1.3.32.56.51,1.21.55,1.97.01.2.02.44.02.73s0,.53-.02.73c-.04.75-.22,1.4-.54,1.96-.31.56-.77,1-1.37,1.3-.6.31-1.34.46-2.22.46ZM516.04,67.7c.58,0,1.03-.18,1.35-.55.32-.37.49-.91.53-1.63.01-.16.02-.38.02-.64s0-.48-.02-.64c-.03-.71-.21-1.26-.53-1.63-.32-.37-.77-.55-1.35-.55s-1.03.18-1.35.55c-.32.37-.5.91-.53,1.63-.01.16-.02.38-.02.64s0,.48.02.64c.03.72.21,1.26.53,1.63.32.37.77.55,1.35.55Z"/><path class="cls-1" d="M522.41,69.17c-.11,0-.2-.04-.28-.12-.08-.08-.12-.17-.12-.28v-7.79c0-.11.04-.2.12-.28.08-.08.17-.12.28-.12h1.35c.11,0,.2.04.28.12.08.08.12.17.12.28v.68c.29-.35.65-.65,1.1-.88.45-.24,1-.35,1.66-.35s1.25.15,1.75.45c.49.3.88.73,1.15,1.28.27.55.4,1.21.4,1.98v4.64c0,.11-.04.2-.12.28-.08.08-.17.12-.28.12h-1.45c-.11,0-.2-.04-.28-.12-.08-.08-.12-.17-.12-.28v-4.54c0-.64-.16-1.14-.47-1.5-.31-.36-.77-.54-1.36-.54s-1.03.18-1.37.54c-.34.36-.51.86-.51,1.5v4.54c0,.11-.04.2-.12.28-.08.08-.17.12-.28.12h-1.45Z"/><path class="cls-1" d="M536.08,69.17c-.66,0-1.22-.12-1.67-.35-.45-.23-.79-.57-1.01-1.03-.22-.46-.33-1.03-.33-1.71v-3.75h-1.3c-.11,0-.2-.04-.28-.12-.08-.08-.12-.18-.12-.3v-.94c0-.11.04-.2.12-.28.08-.08.17-.12.28-.12h1.3v-2.74c0-.11.04-.2.11-.28.07-.08.17-.12.29-.12h1.34c.11,0,.2.04.28.12.08.08.12.17.12.28v2.74h2.06c.11,0,.2.04.28.12.08.08.12.17.12.28v.94c0,.12-.04.22-.12.3-.08.08-.17.12-.28.12h-2.06v3.58c0,.45.08.8.24,1.06.16.25.44.38.83.38h1.14c.11,0,.2.04.28.12.08.08.12.17.12.28v1.02c0,.11-.04.2-.12.28-.08.08-.17.12-.28.12h-1.34Z"/><path class="cls-1" d="M543.08,69.34c-.88,0-1.62-.15-2.22-.46-.6-.31-1.06-.74-1.37-1.3-.31-.56-.49-1.22-.54-1.96-.01-.2-.02-.44-.02-.73s0-.53.02-.73c.04-.76.23-1.42.55-1.97.32-.56.79-.99,1.39-1.3.6-.31,1.33-.46,2.19-.46s1.59.15,2.19.46c.6.31,1.06.74,1.39,1.3.32.56.51,1.21.55,1.97.01.2.02.44.02.73s0,.53-.02.73c-.04.75-.22,1.4-.54,1.96-.31.56-.77,1-1.37,1.3-.6.31-1.34.46-2.22.46ZM543.08,67.7c.58,0,1.03-.18,1.35-.55.32-.37.49-.91.53-1.63.01-.16.02-.38.02-.64s0-.48-.02-.64c-.03-.71-.21-1.26-.53-1.63-.32-.37-.77-.55-1.35-.55s-1.03.18-1.35.55c-.32.37-.49.91-.53,1.63-.01.16-.02.38-.02.64s0,.48.02.64c.03.72.21,1.26.53,1.63.32.37.77.55,1.35.55Z"/><path class="cls-1" d="M549.46,69.17c-.11,0-.2-.04-.28-.12-.08-.08-.12-.17-.12-.28v-10.92c0-.11.04-.2.12-.28.08-.08.17-.12.28-.12h1.37c.11,0,.2.04.28.12.08.08.12.17.12.28v10.92c0,.11-.04.2-.12.28-.08.08-.17.12-.28.12h-1.37Z"/><path class="cls-1" d="M557.22,69.34c-.88,0-1.62-.15-2.22-.46-.6-.31-1.06-.74-1.37-1.3-.31-.56-.49-1.22-.54-1.96-.01-.2-.02-.44-.02-.73s0-.53.02-.73c.04-.76.23-1.42.55-1.97.32-.56.79-.99,1.39-1.3.6-.31,1.33-.46,2.19-.46s1.59.15,2.19.46c.6.31,1.06.74,1.39,1.3.32.56.51,1.21.55,1.97.01.2.02.44.02.73s0,.53-.02.73c-.04.75-.22,1.4-.54,1.96-.31.56-.77,1-1.37,1.3-.6.31-1.34.46-2.22.46ZM557.22,67.7c.58,0,1.03-.18,1.35-.55.32-.37.49-.91.53-1.63.01-.16.02-.38.02-.64s0-.48-.02-.64c-.03-.71-.21-1.26-.53-1.63-.32-.37-.77-.55-1.35-.55s-1.03.18-1.35.55c-.32.37-.5.91-.53,1.63-.01.16-.02.38-.02.64s0,.48.02.64c.03.72.21,1.26.53,1.63.32.37.77.55,1.35.55Z"/><path class="cls-1" d="M567.07,72.8c-.8,0-1.46-.1-1.98-.31-.52-.21-.92-.46-1.22-.76-.3-.3-.51-.59-.64-.88-.13-.29-.2-.52-.21-.68-.01-.11.02-.21.11-.29.08-.08.18-.12.29-.12h1.44c.11,0,.2.02.26.07s.12.14.16.27c.07.14.15.3.26.46.11.16.28.31.5.42.23.12.54.17.93.17.42,0,.77-.06,1.06-.18.29-.12.5-.32.65-.61.15-.29.22-.68.22-1.19v-1.12c-.26.32-.6.58-1.01.78-.41.2-.92.3-1.53.3s-1.09-.1-1.53-.29c-.43-.19-.79-.46-1.08-.81-.29-.35-.5-.76-.65-1.23-.15-.47-.23-1-.26-1.57-.01-.3-.01-.59,0-.89.02-.55.11-1.06.26-1.53.15-.47.37-.89.65-1.25.29-.36.65-.64,1.08-.83.43-.2.94-.3,1.53-.3.63,0,1.15.12,1.58.35.43.24.78.53,1.06.88v-.66c0-.12.04-.22.12-.3.08-.08.17-.12.28-.12h1.34c.11,0,.2.04.28.12.08.08.12.18.12.3l.02,7.95c0,.79-.15,1.47-.45,2.05-.3.57-.75,1.01-1.34,1.33-.6.31-1.37.47-2.3.47ZM566.98,67.37c.45,0,.81-.1,1.09-.3.27-.2.48-.46.61-.78.13-.32.21-.64.23-.97.01-.14.02-.32.02-.54s0-.4-.02-.53c-.02-.34-.1-.67-.23-.98s-.34-.57-.61-.78c-.28-.2-.64-.31-1.09-.31s-.81.1-1.09.31c-.27.2-.47.47-.59.8s-.18.69-.21,1.09c-.02.26-.02.53,0,.81.02.39.09.75.21,1.08.12.34.31.6.59.8.27.2.64.3,1.09.3Z"/><path class="cls-1" d="M573.68,59.17c-.11,0-.2-.04-.28-.12-.08-.08-.12-.17-.12-.28v-1.19c0-.11.04-.2.12-.28.08-.08.17-.12.28-.12h1.5c.12,0,.22.04.3.12.08.08.12.17.12.28v1.19c0,.11-.04.2-.12.28-.08.08-.18.12-.3.12h-1.5ZM573.75,69.17c-.11,0-.2-.04-.28-.12-.08-.08-.12-.17-.12-.28v-7.79c0-.11.04-.2.12-.28.08-.08.17-.12.28-.12h1.37c.12,0,.22.04.29.12.07.08.11.17.11.28v7.79c0,.11-.04.2-.11.28-.07.08-.17.12-.29.12h-1.37Z"/><path class="cls-1" d="M580.2,69.34c-.57,0-1.09-.11-1.55-.34-.46-.23-.83-.53-1.1-.91-.27-.38-.4-.81-.4-1.28,0-.77.31-1.38.94-1.84.63-.46,1.45-.76,2.46-.92l2.26-.33v-.35c0-.46-.12-.82-.35-1.07-.23-.25-.63-.38-1.19-.38-.4,0-.72.08-.97.24-.25.16-.43.37-.55.64-.09.14-.21.21-.38.21h-1.3c-.12,0-.21-.03-.27-.1-.06-.07-.09-.15-.09-.26.01-.18.09-.39.22-.64.14-.25.35-.5.63-.73.28-.24.65-.44,1.1-.6.45-.16,1-.25,1.63-.25.69,0,1.28.09,1.76.26.48.17.86.4,1.15.68.29.29.5.62.63,1.01.13.39.2.79.2,1.22v5.18c0,.11-.04.2-.12.28-.08.08-.17.12-.28.12h-1.34c-.12,0-.22-.04-.29-.12-.07-.08-.11-.17-.11-.28v-.64c-.14.2-.34.39-.58.58-.24.19-.54.34-.88.45-.35.12-.76.17-1.23.17ZM580.76,67.77c.38,0,.73-.08,1.05-.25s.56-.42.74-.77c.18-.35.27-.78.27-1.31v-.35l-1.65.26c-.65.1-1.13.26-1.45.48-.32.22-.48.49-.48.81,0,.24.07.45.22.62.15.17.34.3.57.38.23.08.47.12.73.12Z"/><path class="cls-1" d="M470.44,89.13c-.57,0-1.08-.1-1.51-.29-.43-.19-.79-.46-1.08-.82-.29-.35-.51-.77-.66-1.25-.15-.48-.24-1-.26-1.58-.01-.2-.02-.38-.02-.54s0-.34.02-.54c.02-.55.11-1.06.26-1.53.15-.47.37-.89.66-1.25.29-.36.65-.64,1.09-.83.43-.2.94-.3,1.51-.3s1.1.1,1.51.31c.41.2.76.46,1.03.78v-3.66c0-.11.04-.2.11-.28.07-.08.17-.12.29-.12h1.4c.11,0,.2.04.28.12.08.08.12.17.12.28v10.92c0,.11-.04.2-.12.28-.08.08-.17.12-.28.12h-1.3c-.12,0-.22-.04-.29-.12-.07-.08-.11-.17-.11-.28v-.61c-.28.34-.62.62-1.05.84-.42.22-.95.33-1.59.33ZM471.05,87.37c.46,0,.83-.1,1.11-.31.27-.21.48-.48.61-.8.13-.32.2-.66.21-1,.01-.2.02-.41.02-.64s0-.44-.02-.64c-.01-.33-.09-.65-.23-.95-.14-.3-.35-.55-.63-.75-.28-.2-.63-.3-1.07-.3-.46,0-.83.1-1.1.31-.27.2-.46.47-.59.8-.12.33-.19.69-.21,1.09-.01.33-.01.66,0,.99.02.4.09.76.21,1.09.12.33.32.6.59.8.27.2.64.31,1.1.31Z"/><path class="cls-1" d="M481.06,89.13c-1.22,0-2.19-.35-2.9-1.06-.72-.7-1.1-1.7-1.15-3-.01-.11-.02-.25-.02-.42s0-.31.02-.4c.04-.84.23-1.55.57-2.15.34-.6.8-1.06,1.39-1.39.59-.32,1.29-.49,2.1-.49.89,0,1.64.18,2.24.55.6.37,1.06.88,1.37,1.53.31.65.46,1.41.46,2.27v.35c0,.11-.04.2-.12.28-.08.08-.18.12-.3.12h-5.48v.13c.01.39.09.74.22,1.06.14.32.34.59.61.78.27.2.59.3.97.3.31,0,.57-.05.78-.14.21-.09.38-.2.51-.32.13-.12.23-.22.28-.3.1-.13.18-.21.24-.24.06-.03.15-.04.27-.04h1.42c.11,0,.2.03.27.1.07.07.1.15.09.25-.01.18-.1.39-.27.64-.17.25-.42.5-.73.74-.32.24-.72.44-1.2.6s-1.03.24-1.64.24ZM479.25,83.94h3.65v-.05c0-.43-.07-.81-.21-1.13-.14-.32-.35-.58-.63-.76-.28-.18-.61-.27-.99-.27s-.72.09-.99.27c-.28.18-.48.43-.62.76-.14.32-.21.7-.21,1.13v.05Z"/><path class="cls-1" d="M494.87,89.13c-1.02,0-1.88-.15-2.57-.45-.69-.3-1.21-.7-1.57-1.19-.36-.49-.55-1-.57-1.54,0-.1.03-.18.1-.25.07-.07.15-.1.25-.1h1.47c.14,0,.25.03.32.09.07.06.13.13.19.22.07.21.19.42.38.62.19.2.44.37.77.5.32.13.73.2,1.23.2.79,0,1.38-.13,1.77-.4.39-.26.59-.62.59-1.07,0-.32-.1-.57-.31-.77-.21-.19-.53-.37-.97-.53-.43-.16-1.01-.33-1.72-.5-.82-.2-1.52-.44-2.07-.72-.56-.28-.97-.64-1.25-1.06s-.42-.97-.42-1.63.17-1.2.52-1.7c.35-.49.84-.89,1.48-1.17.64-.29,1.41-.43,2.3-.43.71,0,1.35.1,1.9.29.55.19,1.01.45,1.37.76.36.31.64.65.83,1.01.19.36.29.71.31,1.05,0,.09-.03.17-.09.24-.06.07-.15.11-.26.11h-1.53c-.09,0-.18-.02-.26-.07-.09-.04-.16-.13-.21-.25-.07-.34-.28-.63-.64-.87-.36-.24-.83-.36-1.4-.36s-1.07.11-1.44.33c-.36.22-.54.56-.54,1.02,0,.31.09.56.27.77.18.2.47.38.87.54.4.15.93.32,1.59.49.93.21,1.7.45,2.29.73.59.28,1.03.62,1.3,1.05.27.42.41.96.41,1.61,0,.73-.2,1.34-.59,1.86-.39.51-.94.9-1.64,1.18-.7.27-1.52.41-2.46.41Z"/><path class="cls-1" d="M503.75,89.13c-.57,0-1.09-.11-1.55-.34-.46-.23-.83-.53-1.1-.91-.27-.38-.4-.81-.4-1.28,0-.77.31-1.38.94-1.84.63-.46,1.45-.76,2.46-.92l2.26-.33v-.35c0-.46-.12-.82-.35-1.07-.23-.25-.63-.38-1.19-.38-.4,0-.72.08-.97.24-.25.16-.43.37-.55.64-.09.14-.21.21-.38.21h-1.3c-.12,0-.21-.03-.27-.1-.06-.07-.09-.15-.09-.26.01-.18.09-.39.22-.64.14-.25.35-.5.63-.73.28-.24.65-.44,1.1-.6.45-.16,1-.25,1.63-.25.69,0,1.28.09,1.76.26.48.17.86.4,1.15.68.29.29.49.62.63,1.01.13.39.2.79.2,1.22v5.18c0,.11-.04.2-.12.28-.08.08-.17.12-.28.12h-1.34c-.12,0-.22-.04-.29-.12-.07-.08-.11-.17-.11-.28v-.64c-.14.2-.34.39-.58.58-.24.19-.54.34-.88.45-.35.12-.76.17-1.23.17ZM505.74,79.24c-.29,0-.52-.05-.69-.14-.18-.09-.34-.19-.49-.29s-.31-.15-.49-.15c-.14,0-.24.04-.31.12-.06.08-.12.16-.17.25-.06.08-.14.12-.26.12h-.76c-.08,0-.14-.03-.2-.08-.06-.05-.08-.12-.08-.2,0-.16.03-.35.09-.55.06-.2.16-.4.29-.59.13-.19.3-.34.5-.45.2-.12.44-.17.72-.17.3,0,.53.05.71.14.18.09.34.19.49.29.15.1.31.15.49.15.14,0,.24-.04.31-.13.06-.09.12-.17.17-.26.06-.08.14-.12.26-.12h.76c.09,0,.16.03.21.09.05.06.07.13.07.21,0,.16-.03.35-.09.55-.06.2-.16.4-.29.59-.13.19-.3.34-.5.45-.2.12-.45.17-.73.17ZM504.31,87.57c.38,0,.73-.08,1.05-.25s.56-.42.74-.77c.18-.35.27-.78.27-1.31v-.35l-1.65.26c-.65.1-1.13.26-1.45.48-.32.22-.48.49-.48.81,0,.24.07.45.22.62.15.17.34.3.57.38.23.08.47.12.73.12Z"/><path class="cls-1" d="M514.47,89.13c-.88,0-1.62-.15-2.22-.46-.6-.31-1.06-.74-1.37-1.3-.31-.56-.49-1.22-.54-1.96-.01-.2-.02-.44-.02-.73s0-.53.02-.73c.04-.76.23-1.42.55-1.97.32-.56.79-.99,1.39-1.3.6-.31,1.33-.46,2.19-.46s1.59.15,2.19.46c.6.31,1.06.74,1.39,1.3.32.56.51,1.21.55,1.97.01.2.02.44.02.73s0,.53-.02.73c-.04.75-.22,1.4-.54,1.96-.31.56-.77,1-1.37,1.3-.6.31-1.34.46-2.22.46ZM514.47,87.5c.58,0,1.03-.18,1.35-.55.32-.37.49-.91.53-1.63.01-.16.02-.38.02-.64s0-.48-.02-.64c-.03-.71-.21-1.26-.53-1.63-.32-.37-.77-.55-1.35-.55s-1.03.18-1.35.55c-.32.37-.49.91-.53,1.63-.01.16-.02.38-.02.64s0,.48.02.64c.03.72.21,1.26.53,1.63.32.37.77.55,1.35.55Z"/><path class="cls-1" d="M524.81,88.97c-.11,0-.2-.04-.28-.12-.08-.08-.12-.17-.12-.28v-10.74c0-.12.04-.22.12-.3.08-.08.17-.12.28-.12h4.42c.86,0,1.61.13,2.24.4.64.27,1.13.68,1.48,1.22.35.54.53,1.22.53,2.04s-.18,1.5-.53,2.04c-.35.53-.85.93-1.48,1.2-.64.26-1.39.4-2.24.4h-2.46v3.86c0,.11-.04.2-.11.28-.07.08-.17.12-.29.12h-1.57ZM526.74,82.88h2.41c.64,0,1.13-.15,1.47-.45.34-.3.51-.75.51-1.34,0-.55-.16-.99-.48-1.33-.32-.34-.82-.5-1.5-.5h-2.41v3.63Z"/><path class="cls-1" d="M537.4,89.13c-.57,0-1.09-.11-1.55-.34-.46-.23-.83-.53-1.1-.91-.27-.38-.4-.81-.4-1.28,0-.77.31-1.38.94-1.84.63-.46,1.45-.76,2.46-.92l2.26-.33v-.35c0-.46-.12-.82-.35-1.07-.23-.25-.63-.38-1.19-.38-.4,0-.72.08-.97.24-.25.16-.43.37-.55.64-.09.14-.21.21-.38.21h-1.3c-.12,0-.21-.03-.27-.1-.06-.07-.09-.15-.09-.26.01-.18.09-.39.22-.64.14-.25.35-.5.63-.73.28-.24.65-.44,1.1-.6.45-.16,1-.25,1.63-.25.69,0,1.28.09,1.76.26.48.17.86.4,1.15.68.29.29.49.62.63,1.01.13.39.2.79.2,1.22v5.18c0,.11-.04.2-.12.28-.08.08-.17.12-.28.12h-1.34c-.12,0-.22-.04-.29-.12-.07-.08-.11-.17-.11-.28v-.64c-.14.2-.34.39-.58.58-.24.19-.54.34-.88.45-.35.12-.76.17-1.23.17ZM537.96,87.57c.38,0,.73-.08,1.05-.25.31-.16.56-.42.74-.77.18-.35.27-.78.27-1.31v-.35l-1.65.26c-.65.1-1.13.26-1.45.48-.32.22-.48.49-.48.81,0,.24.07.45.22.62.15.17.34.3.57.38.23.08.47.12.73.12Z"/><path class="cls-1" d="M547.52,89.13c-.67,0-1.25-.15-1.74-.45s-.87-.73-1.13-1.29c-.26-.56-.4-1.21-.4-1.97v-4.64c0-.11.04-.2.12-.28.08-.08.17-.12.28-.12h1.45c.12,0,.22.04.29.12.07.08.11.17.11.28v4.54c0,1.36.6,2.05,1.8,2.05.57,0,1.03-.18,1.36-.54.34-.36.5-.86.5-1.5v-4.54c0-.11.04-.2.12-.28.08-.08.17-.12.28-.12h1.45c.11,0,.2.04.28.12.08.08.12.17.12.28v7.79c0,.11-.04.2-.12.28-.08.08-.17.12-.28.12h-1.34c-.12,0-.22-.04-.29-.12-.07-.08-.11-.17-.11-.28v-.68c-.3.39-.67.69-1.11.91-.44.22-.99.33-1.65.33Z"/><path class="cls-1" d="M554.99,88.97c-.11,0-.2-.04-.28-.12-.08-.08-.12-.17-.12-.28v-10.92c0-.11.04-.2.12-.28.08-.08.17-.12.28-.12h1.37c.11,0,.2.04.28.12.08.08.12.17.12.28v10.92c0,.11-.04.2-.12.28-.08.08-.17.12-.28.12h-1.37Z"/><path class="cls-1" d="M562.74,89.13c-.88,0-1.62-.15-2.22-.46-.6-.31-1.06-.74-1.37-1.3-.31-.56-.49-1.22-.54-1.96-.01-.2-.02-.44-.02-.73s0-.53.02-.73c.04-.76.23-1.42.55-1.97.32-.56.79-.99,1.39-1.3.6-.31,1.33-.46,2.19-.46s1.59.15,2.19.46c.6.31,1.06.74,1.39,1.3.32.56.51,1.21.55,1.97.01.2.02.44.02.73s0,.53-.02.73c-.04.75-.22,1.4-.54,1.96-.31.56-.77,1-1.37,1.3s-1.34.46-2.22.46ZM562.74,87.5c.58,0,1.03-.18,1.35-.55.32-.37.49-.91.53-1.63.01-.16.02-.38.02-.64s0-.48-.02-.64c-.03-.71-.21-1.26-.53-1.63-.32-.37-.77-.55-1.35-.55s-1.03.18-1.35.55c-.32.37-.49.91-.53,1.63-.01.16-.02.38-.02.64s0,.48.02.64c.03.72.21,1.26.53,1.63.32.37.77.55,1.35.55Z"/><rect class="cls-1" x="430.7" width=".47" height="106.96"/></g></svg>